<svg enable-background="new 0 0 32 32" viewBox="0 0 32 32" xmlns="http://www.w3.org/2000/svg"><path d="m29.36 16.5c0-1.433-.797-2.74-2.052-3.406.034-.205.052-.401.052-.594 0-1.433-.797-2.74-2.052-3.406.035-.205.052-.402.052-.594 0-1.506-.864-3.067-2.038-3.73-.242-1.771-1.881-3.13-3.822-3.13-1.554 0-2.889.928-3.5 2.256-.611-1.327-1.946-2.256-3.5-2.256-1.989 0-3.632 1.508-3.828 3.472-1.241.671-2.032 1.978-2.032 3.388 0 .192.017.388.051.594-1.255.666-2.051 1.973-2.051 3.406 0 .192.017.388.051.594-1.255.666-2.051 1.973-2.051 3.406 0 .875.303 1.722.858 2.41-.237.514-.358 1.047-.358 1.59 0 1.61 1.022 3.05 2.523 3.605-.016.137-.023.268-.023.395 0 1.832 1.312 3.406 3.093 3.767.36 1.781 1.935 3.094 3.767 3.094 1.555 0 2.889-.929 3.5-2.256.176.382.412.73.697 1.033.018.04.016.085.049.118s.078.031.118.049c.691.65 1.615 1.056 2.636 1.056 1.832 0 3.406-1.312 3.767-3.094 1.781-.36 3.094-1.935 3.094-3.767 0-.128-.008-.257-.023-.395 1.5-.556 2.523-1.995 2.523-3.605 0-.542-.121-1.075-.359-1.59.555-.687.858-1.534.858-2.41zm-16 14.005v-1.801c0-1.184-.919-2.05-2.029-2.98-.153-.126-.38-.107-.507.045-.128.152-.108.38.045.508 1.149.963 1.772 1.635 1.772 2.428v1.921c-.047.002-.092.014-.14.014-1.562 0-2.894-1.175-3.097-2.732l-.036-.274-.274-.036c-1.559-.204-2.734-1.536-2.734-3.098 0-.136.022-.266.041-.398l1.745-.773c.182-.08.264-.293.183-.475-.081-.183-.294-.268-.475-.184l-1.803.8c-1.294-.414-2.191-1.614-2.191-2.97 0-.387.101-.766.253-1.14h2.887c.199 0 .36-.161.36-.36s-.161-.36-.36-.36h-2.783l-.024-.026c-.537-.587-.833-1.337-.833-2.114 0-1.245.74-2.373 1.884-2.875l.274-.12-.068-.291c-.061-.257-.09-.491-.09-.714 0-1.153.639-2.199 1.642-2.746l1.721 2.186c.313.38.596.688.901.929l-1.878 1.878c-.141.141-.141.368 0 .509.07.069.162.104.254.104s.184-.035.254-.105l2-2c.005-.005.003-.014.008-.019.22.077.459.125.738.125h2c.199 0 .36-.161.36-.36s-.161-.36-.36-.36h-2c-.656 0-1.005-.29-1.717-1.152l-1.841-2.34c-.05-.23-.082-.447-.082-.649 0-1.129.63-2.171 1.615-2.724l.794.664c.067.057.149.084.231.084.103 0 .205-.044.276-.129.127-.152.107-.379-.045-.507l-.831-.695c.158-1.599 1.482-2.833 3.1-2.833 1.731 0 3.14 1.409 3.14 3.14v4.169c-.562-.671-1.441-1.029-2.64-1.029-.199 0-.36.161-.36.36s.161.36.36.36c1.826 0 2.64.814 2.64 2.64v4.659c-.749.076-1.166.358-1.52.623-.455.343-.814.612-2.049.365-.196-.042-.385.087-.424.282-.039.194.087.385.282.423.375.075.691.107.964.107.857 0 1.277-.315 1.659-.602.3-.225.58-.417 1.088-.482v5.253l-2.14.01c-1.044 0-1.771-.59-2.159-1.754-.062-.188-.268-.291-.455-.228-.188.063-.291.267-.228.456.651 1.954 2.06 2.246 2.843 2.246l2.139-.01v4.15c0 1.433-.968 2.63-2.28 3.007zm12.761-7.099c-.619-1.282-1.559-1.786-3.181-1.778l-1.006.012c-1.207 0-1.574-.383-1.574-1.64 0-.199-.161-.36-.36-.36s-.36.161-.36.36c0 1.654.687 2.36 2.299 2.36l1.01-.012c.024-.001.049-.001.073-.001 1.415 0 2.072.416 2.563 1.607.031.178.055.358.055.545 0 1.416-.971 2.634-2.313 3.002-.078-1.062-.414-1.876-1.079-2.501-.146-.136-.373-.13-.509.015-.137.146-.13.373.015.509.564.531.828 1.22.869 2.184l-.026.199c-.203 1.558-1.535 2.732-3.097 2.732-.736 0-1.404-.265-1.94-.69l1.695-1.695c.141-.141.141-.369 0-.51s-.369-.141-.51 0l-1.695 1.696c-.426-.536-.691-1.204-.691-1.94v-.5c0-1.58.504-1.64 2.64-1.64.199 0 .36-.161.36-.36s-.161-.36-.36-.36c-1.115 0-2.041.015-2.64.456v-7.758c1.462-.044 1.926-.348 2.329-.621.292-.2.524-.357 1.312-.357.199 0 .36-.161.36-.36s-.161-.36-.36-.36c-1.01 0-1.369.245-1.717.481-.334.227-.689.459-1.923.497v-8.287c.562.671 1.441 1.029 2.64 1.029.199 0 .36-.161.36-.36s-.161-.36-.36-.36c-1.826 0-2.64-.814-2.64-2.64v-.5c0-1.731 1.409-3.14 3.14-3.14 1.495 0 2.756.976 3.055 2.28h-2.555c-.199 0-.36.161-.36.36s.161.36.36.36h2.888c.986.503 1.751 1.864 1.751 3.14 0 .191-.033.397-.077.611-.946.799-1.729 1.563-1.888 2.529h-2.674c-.199 0-.36.161-.36.36s.161.36.36.36h2.64v2.64c0 .199.161.36.36.36s.36-.161.36-.36v-3c0-.749.56-1.393 1.589-2.272 1.031.54 1.69 1.601 1.69 2.772 0 .224-.029.457-.09.713l-.068.292.274.12c1.145.501 1.884 1.63 1.884 2.875 0 .777-.296 1.528-.833 2.113l-.024.026h-2.782c-.199 0-.36.161-.36.36s.161.36.36.36h2.887c.152.373.252.754.252 1.14.001 1.296-.819 2.445-2.018 2.907z" fill="white"/><path d="m0 0h32v32h-32z" fill="none"/></svg>